<?xml version="1.0" standalone="no"?>
<!DOCTYPE svg PUBLIC "-//W3C//DTD SVG 20010904//EN"
 "http://www.w3.org/TR/2001/REC-SVG-20010904/DTD/svg10.dtd">
<svg version="1.0" xmlns="http://www.w3.org/2000/svg"
 width="100.000000pt" height="100.000000pt" viewBox="0 0 100.000000 100.000000"
 preserveAspectRatio="xMidYMid meet">
<metadata>
Created by potrace 1.11, written by Peter Selinger 2001-2013
</metadata>
<g transform="translate(0.000000,100.000000) scale(0.100000,-0.100000)"
fill="#000000" stroke="none">
<path d="M404 917 c-80 -39 -147 -133 -168 -239 -15 -75 -48 -210 -61 -252
-18 -58 -18 -78 -4 -131 15 -55 95 -130 194 -182 122 -64 138 -64 249 -9 149
74 225 156 226 241 0 17 -11 69 -24 115 -13 47 -34 128 -46 180 -26 115 -47
164 -90 214 -71 80 -185 106 -276 63z m35 -297 c54 -25 78 -25 132 0 60 27 86
25 120 -9 32 -33 36 -58 14 -101 -16 -30 -37 -41 -83 -42 l-27 -1 22 -46 c44
-88 46 -169 6 -213 -73 -81 -246 -52 -271 46 -11 42 3 111 32 166 l25 46 -32
2 c-80 5 -121 73 -81 130 31 45 77 51 143 22z"/>
<path d="M370 549 c15 -27 34 -33 62 -18 l23 12 -30 13 c-16 7 -38 13 -48 14
-15 0 -16 -3 -7 -21z"/>
<path d="M577 556 c-24 -11 -26 -14 -13 -25 20 -17 46 -11 64 17 13 20 13 22
-4 21 -11 0 -32 -6 -47 -13z"/>
<path d="M445 411 c-8 -15 3 -31 21 -31 9 0 14 7 12 17 -4 20 -24 28 -33 14z"/>
<path d="M520 405 c-10 -12 -9 -16 5 -21 19 -8 40 9 31 25 -10 15 -21 14 -36
-4z"/>
<path d="M425 290 c-14 -22 12 -31 81 -28 53 2 69 6 69 18 0 12 -16 16 -72 18
-45 2 -74 -1 -78 -8z"/>
<path d="M123 634 c-23 -24 -25 -31 -21 -88 6 -70 25 -119 38 -95 6 12 50 191
50 205 0 14 -45 0 -67 -22z"/>
<path d="M815 629 c9 -53 37 -163 45 -178 13 -23 32 25 37 93 6 69 -11 100
-60 112 -27 6 -28 5 -22 -27z"/>
</g>
</svg>
